<svg width="100" height="25" viewBox="0 0 100 25" fill="none" xmlns="http://www.w3.org/2000/svg">
<g clip-path="url(#clip0_2315_108)">
<mask id="mask0_2315_108" style="mask-type:luminance" maskUnits="userSpaceOnUse" x="0" y="0" width="168" height="26">
<path d="M0 0H167.416V25.1614H0V0Z" fill="white"/>
</mask>
<g mask="url(#mask0_2315_108)">
<path d="M28.1268 19.8387L23.5347 24.8183C23.4352 24.9262 23.3148 25.0123 23.1811 25.0714C23.0473 25.1304 22.9031 25.1611 22.7572 25.1615H0.9875C0.883897 25.1609 0.782686 25.1299 0.696166 25.0723C0.609645 25.0147 0.54154 24.9328 0.500126 24.8368C0.458712 24.7407 0.445772 24.6346 0.462878 24.5313C0.479985 24.4279 0.526402 24.3318 0.596489 24.2547L5.183 19.2751C5.28253 19.1672 5.40288 19.0811 5.53661 19.022C5.67034 18.963 5.81462 18.9323 5.96053 18.9319H27.7302C27.8349 18.9298 27.938 18.9591 28.0263 19.016C28.1147 19.0729 28.1844 19.155 28.2268 19.2519C28.2692 19.3488 28.2823 19.4562 28.2645 19.5606C28.2467 19.665 28.1988 19.7618 28.1268 19.8387ZM23.5347 9.80807C23.4347 9.70068 23.3143 9.61491 23.1807 9.55592C23.047 9.49694 22.903 9.46597 22.7572 9.46489H0.9875C0.883679 9.46495 0.78213 9.49563 0.695291 9.55318C0.608453 9.61073 0.540097 9.69265 0.498596 9.78889C0.457096 9.88514 0.444252 9.99154 0.46164 10.0951C0.479027 10.1986 0.52589 10.2947 0.596489 10.3717L5.183 15.3547C5.28294 15.462 5.40337 15.5478 5.53701 15.6068C5.67065 15.6658 5.81473 15.6968 5.96053 15.6978H27.7302C27.8336 15.6968 27.9345 15.6655 28.0207 15.6077C28.1069 15.5499 28.1746 15.4681 28.2158 15.3721C28.2569 15.2762 28.2697 15.1702 28.2525 15.0671C28.2353 14.9639 28.1889 14.868 28.119 14.791L23.5347 9.80807ZM0.9875 6.23079H22.7572C22.9031 6.23038 23.0473 6.19971 23.1811 6.14068C23.3148 6.08165 23.4352 5.99553 23.5347 5.88761L28.1268 0.906932C28.1802 0.849168 28.2205 0.780236 28.2446 0.705014C28.2688 0.629792 28.2763 0.550118 28.2667 0.471629C28.257 0.39314 28.2304 0.317755 28.1888 0.250806C28.1472 0.183858 28.0915 0.126982 28.0257 0.0842046C27.9376 0.0271988 27.8348 -0.00206825 27.7302 0.000113693H5.96053C5.81462 0.000532307 5.67034 0.0312018 5.53661 0.0902279C5.40288 0.149254 5.28253 0.235383 5.183 0.343295L0.596489 5.32398C0.52589 5.40096 0.479027 5.49711 0.46164 5.60062C0.444252 5.70414 0.457096 5.81054 0.498596 5.90679C0.540097 6.00303 0.608453 6.08495 0.695291 6.1425C0.78213 6.20005 0.883679 6.23073 0.9875 6.23079Z" fill="url(#paint0_linear_2315_108)"/>
<path d="M54.6667 10.6409H43.0206V6.76021H57.6948V2.88293H42.9802C41.9651 2.87749 40.9894 3.28003 40.2677 4.00202C39.5461 4.724 39.1375 5.70632 39.1318 6.73293V10.6648C39.1339 11.1735 39.2351 11.6769 39.4297 12.146C39.6243 12.6152 39.9084 13.0409 40.2658 13.3989C40.6233 13.7569 41.047 14.0402 41.5127 14.2324C41.9785 14.4247 42.4771 14.5221 42.9802 14.5193H54.6431V18.3988H39.4105V22.2773H54.6667C55.6815 22.2818 56.6566 21.879 57.3781 21.1572C58.0996 20.4354 58.5084 19.4536 58.515 18.4273V14.4954C58.5129 13.9867 58.4117 13.4833 58.2171 13.0142C58.0226 12.545 57.7384 12.1192 57.381 11.7612C57.0236 11.4032 56.5999 11.12 56.1341 10.9278C55.6684 10.7355 55.1697 10.638 54.6667 10.6409ZM77.2285 2.88293H65.5397C65.0362 2.87889 64.5369 2.97533 64.0704 3.16674C63.6038 3.35814 63.1792 3.64075 62.8208 3.99838C62.4623 4.356 62.1772 4.78162 61.9817 5.25086C61.7862 5.7201 61.6841 6.22374 61.6813 6.73293V18.4273C61.6836 18.9366 61.7854 19.4405 61.9808 19.91C62.1761 20.3795 62.4612 20.8054 62.8197 21.1632C63.1782 21.521 63.603 21.8037 64.0698 21.9951C64.5365 22.1865 65.0361 22.2827 65.5397 22.2784H77.2307C77.7334 22.2811 78.2317 22.1836 78.6972 21.9915C79.1627 21.7994 79.5862 21.5165 79.9435 21.1589C80.3009 20.8013 80.5851 20.376 80.7799 19.9073C80.9748 19.4386 81.0764 18.9357 81.079 18.4273V6.73293C81.076 5.96704 80.8479 5.21936 80.4237 4.58485C79.9996 3.95034 79.3986 3.45763 78.697 3.1693C78.2316 2.97721 77.7334 2.8799 77.2307 2.88293H77.2285ZM77.2004 18.3988H65.5667V6.76248H77.1959L77.2004 18.3988ZM88.3981 2.88293H84.5105V18.4284C84.513 18.9381 84.615 19.4422 84.8107 19.9119C85.0064 20.3816 85.292 20.8075 85.6509 21.1652C86.0099 21.523 86.4351 21.8055 86.9024 21.9965C87.3696 22.1875 87.8695 22.2833 88.3734 22.2784H100.034V18.3988H88.3993L88.3981 2.88293Z" fill="white"/>
</g>
</g>
<defs>
<linearGradient id="paint0_linear_2315_108" x1="2.80211" y1="25.7626" x2="25.917" y2="-0.00533145" gradientUnits="userSpaceOnUse">
<stop offset="0.08" stop-color="#9945FF"/>
<stop offset="0.3" stop-color="#8752F3"/>
<stop offset="0.5" stop-color="#5497D5"/>
<stop offset="0.6" stop-color="#43B4CA"/>
<stop offset="0.72" stop-color="#28E0B9"/>
<stop offset="0.97" stop-color="#19FB9B"/>
</linearGradient>
<clipPath id="clip0_2315_108">
<rect width="100" height="25" fill="white"/>
</clipPath>
</defs>
</svg>
