<svg width="149" height="22" viewBox="0 0 149 22" fill="none" xmlns="http://www.w3.org/2000/svg">
<g clip-path="url(#clip0_2315_132)">
<mask id="mask0_2315_132" style="mask-type:luminance" maskUnits="userSpaceOnUse" x="0" y="0" width="149" height="23">
<path d="M0 0H149V22.142H0V0Z" fill="white"/>
</mask>
<g mask="url(#mask0_2315_132)">
<path d="M25.033 17.4581L20.946 21.8401C20.8574 21.9351 20.7503 22.0109 20.6313 22.0628C20.5123 22.1147 20.3839 22.1417 20.254 22.1421H0.879021C0.786815 22.1416 0.696737 22.1143 0.619734 22.0636C0.542731 22.0129 0.482117 21.9409 0.445258 21.8564C0.4084 21.7719 0.396883 21.6785 0.412108 21.5875C0.427333 21.4966 0.468644 21.412 0.531021 21.3441L4.61302 16.9621C4.7016 16.8671 4.80871 16.7913 4.92773 16.7394C5.04675 16.6875 5.17516 16.6605 5.30502 16.6601H24.68C24.7732 16.6582 24.8649 16.684 24.9436 16.7341C25.0222 16.7842 25.0843 16.8564 25.122 16.9417C25.1597 17.0269 25.1714 17.1214 25.1556 17.2133C25.1397 17.3052 25.0971 17.3904 25.033 17.4581ZM20.946 8.6311C20.8571 8.5366 20.7499 8.46112 20.631 8.40921C20.512 8.35731 20.3838 8.33005 20.254 8.3291H0.879021C0.786621 8.32915 0.696242 8.35616 0.618956 8.4068C0.54167 8.45744 0.480833 8.52953 0.443897 8.61423C0.406962 8.69892 0.395531 8.79256 0.411006 8.88365C0.426481 8.97475 0.468189 9.05935 0.531021 9.1271L4.61302 13.5121C4.70197 13.6066 4.80915 13.6821 4.92809 13.734C5.04702 13.7859 5.17525 13.8131 5.30502 13.8141H24.68C24.7721 13.8132 24.8619 13.7857 24.9386 13.7348C25.0153 13.6839 25.0756 13.6119 25.1122 13.5275C25.1488 13.443 25.1602 13.3498 25.1449 13.259C25.1296 13.1683 25.0883 13.0839 25.026 13.0161L20.946 8.6311ZM0.879021 5.4831H20.254C20.3839 5.48273 20.5123 5.45574 20.6313 5.4038C20.7503 5.35186 20.8574 5.27606 20.946 5.1811L25.033 0.7981C25.0806 0.747268 25.1164 0.686608 25.1379 0.620413C25.1594 0.554217 25.1661 0.484104 25.1575 0.415034C25.1489 0.345964 25.1252 0.279624 25.0882 0.22071C25.0511 0.161795 25.0016 0.111745 24.943 0.0741C24.8646 0.023935 24.7731 -0.00182006 24.68 0.00010005H5.30502C5.17516 0.00046843 5.04675 0.0274576 4.92773 0.0794006C4.80871 0.131344 4.7016 0.207137 4.61302 0.3021L0.531021 4.6851C0.468189 4.75285 0.426481 4.83745 0.411006 4.92855C0.395531 5.01964 0.406962 5.11328 0.443897 5.19797C0.480833 5.28267 0.54167 5.35476 0.618956 5.4054C0.696242 5.45604 0.786621 5.48305 0.879021 5.4831Z" fill="url(#paint0_linear_2315_132)"/>
<path d="M48.6531 9.36538H38.2881V5.95038H51.3481V2.53838H38.2521C37.3487 2.53359 36.4804 2.88782 35.8381 3.52317C35.1958 4.15852 34.8322 5.02295 34.8271 5.92638V9.38638C34.829 9.83408 34.9191 10.277 35.0922 10.6899C35.2654 11.1028 35.5183 11.4774 35.8364 11.7925C36.1545 12.1075 36.5316 12.3567 36.9461 12.5259C37.3606 12.6951 37.8044 12.7809 38.2521 12.7784H48.6321V16.1924H35.0751V19.6054H48.6531C49.5563 19.6094 50.4242 19.2549 51.0663 18.6197C51.7084 17.9845 52.0723 17.1205 52.0781 16.2174V12.7574C52.0763 12.3097 51.9862 11.8667 51.8131 11.4539C51.6399 11.041 51.387 10.6663 51.0689 10.3513C50.7508 10.0362 50.3737 9.78701 49.9592 9.61784C49.5447 9.44866 49.1009 9.36287 48.6531 9.36538ZM68.7332 2.53838H58.3302C57.8821 2.53482 57.4377 2.61969 57.0224 2.78812C56.6072 2.95656 56.2293 3.20526 55.9103 3.51997C55.5913 3.83468 55.3375 4.20922 55.1635 4.62215C54.9895 5.03508 54.8986 5.47828 54.8961 5.92638V16.2174C54.8982 16.6656 54.9888 17.1091 55.1627 17.5222C55.3366 17.9354 55.5903 18.3102 55.9093 18.625C56.2284 18.9399 56.6065 19.1887 57.0219 19.3571C57.4373 19.5255 57.8819 19.6102 58.3302 19.6064H68.7351C69.1826 19.6087 69.6261 19.523 70.0403 19.3539C70.4546 19.1849 70.8315 18.9359 71.1495 18.6212C71.4676 18.3065 71.7205 17.9323 71.8939 17.5198C72.0673 17.1074 72.1578 16.6648 72.1602 16.2174V5.92638C72.1574 5.25239 71.9544 4.59443 71.5769 4.03606C71.1995 3.47769 70.6646 3.04411 70.0401 2.79038C69.626 2.62134 69.1825 2.53571 68.7351 2.53838H68.7332ZM68.7081 16.1924H58.3541V5.95238H68.7042L68.7081 16.1924ZM105.176 2.53838H95.0281C94.1247 2.53359 93.2564 2.88782 92.6141 3.52317C91.9718 4.15852 91.6082 5.02295 91.6031 5.92638V19.6064H95.0632V13.9994H105.165V19.6064H108.625V5.92638C108.621 5.24967 108.416 4.58945 108.036 4.02976C107.655 3.47006 107.117 3.03619 106.489 2.78338C106.072 2.61536 105.626 2.53174 105.176 2.53738V2.53838ZM105.151 10.5854H95.0492V5.95138H105.151V10.5854ZM145.575 2.53838H135.426C134.979 2.53587 134.535 2.62153 134.121 2.79045C133.707 2.95938 133.33 3.20825 133.012 3.52287C132.694 3.83749 132.441 4.21169 132.267 4.62409C132.094 5.03649 132.004 5.47901 132.001 5.92638V19.6064H135.461V13.9994H145.54V19.6064H149V5.92638C148.994 5.02331 148.63 4.15948 147.989 3.52338C147.671 3.20844 147.295 2.95932 146.88 2.79029C146.466 2.62127 146.023 2.53566 145.575 2.53838ZM145.54 10.5854H135.438V5.95138H145.54V10.5854ZM125.474 16.1924H124.09L119.142 3.96838C118.974 3.54572 118.682 3.18341 118.306 2.92842C117.929 2.67344 117.484 2.53755 117.029 2.53838H113.959C113.661 2.53666 113.365 2.59379 113.089 2.70647C112.813 2.81916 112.561 2.9852 112.349 3.1951C112.137 3.405 111.969 3.65464 111.853 3.92975C111.738 4.20485 111.677 4.50002 111.676 4.79838V19.6064H115.136V5.95038H116.52L121.465 18.1754C121.637 18.5964 121.931 18.9564 122.309 19.2094C122.687 19.4624 123.132 19.5968 123.587 19.5954H126.657C126.956 19.5971 127.251 19.54 127.528 19.4273C127.804 19.3146 128.055 19.1486 128.267 18.9387C128.479 18.7288 128.648 18.4791 128.763 18.204C128.879 17.9289 128.939 17.6337 128.94 17.3354V2.53838H125.474V16.1924ZM78.6742 2.53838H75.2141V16.2184C75.2164 16.6669 75.3072 17.1105 75.4813 17.5238C75.6555 17.9372 75.9096 18.312 76.2291 18.6268C76.5486 18.9416 76.9271 19.1902 77.3429 19.3583C77.7587 19.5264 78.2037 19.6107 78.6521 19.6064H89.0301V16.1924H78.6752L78.6742 2.53838Z" fill="white"/>
</g>
</g>
<defs>
<linearGradient id="paint0_linear_2315_132" x1="2.49402" y1="22.6711" x2="22.809" y2="-0.2329" gradientUnits="userSpaceOnUse">
<stop offset="0.08" stop-color="#9945FF"/>
<stop offset="0.3" stop-color="#8752F3"/>
<stop offset="0.5" stop-color="#5497D5"/>
<stop offset="0.6" stop-color="#43B4CA"/>
<stop offset="0.72" stop-color="#28E0B9"/>
<stop offset="0.97" stop-color="#19FB9B"/>
</linearGradient>
<clipPath id="clip0_2315_132">
<rect width="149" height="22" fill="white"/>
</clipPath>
</defs>
</svg>
